HIERARCHY
ROOT SpineBase
{
  OFFSET 0.000000 0.000000 0.000000
  CHANNELS 6 Xposition Yposition Zposition Zrotation Xrotation Yrotation
  JOINT SpineMid
  {
    OFFSET 0.000000 31.773243 0.000000
    CHANNELS 3 Zrotation Xrotation Yrotation
    JOINT SpineShoulder
    {
      OFFSET 0.146820 23.570296 -0.690383
      CHANNELS 3 Zrotation Xrotation Yrotation
      JOINT Neck
      {
        OFFSET 0.099295 7.790313 -0.535385
        CHANNELS 3 Zrotation Xrotation Yrotation
        JOINT Head
        {
          OFFSET 4.029039 13.326841 2.177259
          CHANNELS 3 Zrotation Xrotation Yrotation
          End Site
          {
            OFFSET 0 0 0
          }
        }
      }
      JOINT ShoulderLeft
      {
        OFFSET -10.845274 -3.990075 -12.250421
        CHANNELS 3 Zrotation Xrotation Yrotation
        JOINT ElbowLeft
        {
          OFFSET -6.762339 -27.782718 -6.354389
          CHANNELS 3 Zrotation Xrotation Yrotation
          JOINT WristLeft
          {
            OFFSET 2.542032 -23.312638 -4.500460
            CHANNELS 3 Zrotation Xrotation Yrotation
            JOINT HandLeft
            {
              OFFSET 0.047155 -6.085320 1.900793
              CHANNELS 3 Zrotation Xrotation Yrotation
              JOINT HandTipLeft
              {
                OFFSET 0.896253 -7.392948 -0.024264
                CHANNELS 3 Zrotation Xrotation Yrotation
                End Site
                {
                  OFFSET 0 0 0
                }
              }
              JOINT ThumbLeft
              {
                OFFSET -3.523237 0.647043 -2.132390
                CHANNELS 3 Zrotation Xrotation Yrotation
                End Site
                {
                  OFFSET 0 0 0
                }
              }
            }
          }
        }
      }
      JOINT ShoulderRight
      {
        OFFSET 12.788729 -5.268427 9.550050
        CHANNELS 3 Zrotation Xrotation Yrotation
        JOINT ElbowRight
        {
          OFFSET 3.586732 -30.451016 8.915379
          CHANNELS 3 Zrotation Xrotation Yrotation
          JOINT WristRight
          {
            OFFSET 0.225311 -23.648773 -1.303244
            CHANNELS 3 Zrotation Xrotation Yrotation
            JOINT HandRight
            {
              OFFSET 0.243355 -7.521295 3.233783
              CHANNELS 3 Zrotation Xrotation Yrotation
              JOINT HandTipRight
              {
                OFFSET -0.008311 -6.536435 0.183596
                CHANNELS 3 Zrotation Xrotation Yrotation
                End Site
                {
                  OFFSET 0 0 0
                }
              }
              JOINT ThumbRight
              {
                OFFSET 2.062025 -0.608655 -3.267045
                CHANNELS 3 Zrotation Xrotation Yrotation
                End Site
                {
                  OFFSET 0 0 0
                }
              }
            }
          }
        }
      }
    }
  }
  JOINT HipLeft
  {
    OFFSET -4.842285 1.470911 -7.591819
    CHANNELS 3 Zrotation Xrotation Yrotation
    JOINT KneeLeft
    {
      OFFSET -11.886276 -35.549666 -2.970760
      CHANNELS 3 Zrotation Xrotation Yrotation
      JOINT AnkleLeft
      {
        OFFSET -9.038791 -38.912202 8.301887
        CHANNELS 3 Zrotation Xrotation Yrotation
        JOINT FootLeft
        {
          OFFSET 0.718553 -7.906186 -6.668946
          CHANNELS 3 Zrotation Xrotation Yrotation
          End Site
          {
            OFFSET 0 0 0
          }
        }
      }
    }
  }
  JOINT HipRight
  {
    OFFSET 5.686267 -0.039718 0.572846
    CHANNELS 3 Zrotation Xrotation Yrotation
    JOINT KneeRight
    {
      OFFSET -6.425945 -39.373009 6.361985
      CHANNELS 3 Zrotation Xrotation Yrotation
      JOINT AnkleRight
      {
        OFFSET -7.824922 -36.740078 13.546425
        CHANNELS 3 Zrotation Xrotation Yrotation
        JOINT FootRight
        {
          OFFSET 3.493944 -7.920823 -5.061300
          CHANNELS 3 Zrotation Xrotation Yrotation
          End Site
          {
            OFFSET 0 0 0
          }
        }
      }
    }
  }
}
MOTION
Frames: 16
Frame Time: 0.033333
-41.985314 84.832211 345.748631 -0.751387 0.698903 -36.681407 0.054143 0.363213 36.668754 -0.059612 0.176073 -0.031619 -0.939885 -1.172545 0.281899 0.000000 0.000000 0.000000 0.551569 -1.133424 0.057774 -1.921432 1.017883 0.499080 -3.054351 8.798513 -1.662928 5.323885 -9.648919 1.985609 0.000000 0.000000 0.000000 0.000000 0.000000 0.000000 14.964933 34.717153 4.666903 131.884808 65.140806 -133.161958 -23.828059 29.746633 54.861298 -2.986240 -20.070673 -103.787573 0.000000 0.000000 0.000000 0.000000 0.000000 0.000000 2.250543 0.215514 36.745397 -1.181684 0.474009 -0.054641 1.675223 0.550197 -1.363807 0.000000 0.000000 0.000000 1.020082 -0.111598 36.686984 -0.000000 0.000000 0.000000 -5.066161 -3.873307 1.416897 0.000000 0.000000 0.000000
-42.086982 84.918573 345.747923 -0.874109 0.918078 -35.722233 -0.019368 0.405348 35.706696 -0.098858 0.180667 -0.042993 -0.087525 -1.660000 0.260570 0.000000 0.000000 0.000000 0.753702 -1.438242 0.079530 -2.667984 1.558441 0.721308 -0.707510 7.442497 -1.510433 3.574458 -7.414202 1.492970 0.000000 0.000000 0.000000 0.000000 0.000000 0.000000 19.145860 35.380589 4.711950 149.093797 61.309246 -175.024983 -32.751341 19.891937 82.011679 -6.976900 -22.696633 -153.700991 0.000000 0.000000 0.000000 0.000000 0.000000 0.000000 2.780167 0.356669 35.736297 -1.591083 0.416049 -0.000361 1.646354 0.980803 -1.302600 0.000000 0.000000 0.000000 1.245673 -0.234896 35.731790 -0.000000 0.000000 0.000000 -5.168914 -3.707925 1.564948 0.000000 0.000000 0.000000
-42.183998 85.000840 345.750471 -1.017074 1.112993 -34.584283 -0.104676 0.414583 34.564688 -0.151467 0.164533 -0.057194 1.022020 -1.676686 0.106473 0.000000 0.000000 0.000000 1.022020 -1.676686 0.106473 -3.397235 2.187423 0.958990 1.386651 5.647654 -1.374354 1.950477 -5.184005 1.050414 0.000000 0.000000 0.000000 0.000000 0.000000 0.000000 23.191977 34.920026 4.796897 157.152267 58.187169 153.078645 -32.650431 -3.019296 123.420294 -4.520167 -22.256388 152.900990 0.000000 0.000000 0.000000 0.000000 0.000000 0.000000 3.329403 0.507977 34.547441 -2.012453 0.357511 0.054599 1.250573 1.145193 -0.954313 0.000000 0.000000 0.000000 1.469107 -0.338839 34.598506 -0.000000 0.000000 0.000000 -4.918325 -3.321960 1.595917 0.000000 0.000000 0.000000
-42.282039 85.079558 345.749531 -1.188655 1.277635 -33.290623 -0.161786 0.396236 33.266718 -0.213268 0.128778 -0.072751 2.535897 -2.221660 0.101095 0.000000 0.000000 0.000000 1.323315 -1.823881 0.135134 -4.117284 2.611730 1.173302 3.146617 4.008942 -1.250359 1.563789 -3.318721 0.787162 0.000000 0.000000 0.000000 0.000000 0.000000 0.000000 26.915780 34.794010 4.863946 156.663537 56.823682 142.648595 -50.212453 -9.862267 135.948091 -18.119565 -29.534882 112.179226 0.000000 0.000000 0.000000 0.000000 0.000000 0.000000 3.876162 0.651399 33.205982 -2.409217 0.302221 0.105896 1.006354 1.192722 -0.743827 0.000000 0.000000 0.000000 1.694881 -0.415267 33.310019 -0.000000 0.000000 0.000000 -4.790208 -3.140439 1.603214 0.000000 0.000000 0.000000
-42.380781 85.165212 345.740420 -1.369825 1.419681 -31.840864 -0.194137 0.365067 31.812992 -0.269146 0.095094 -0.087648 3.935711 -2.308778 -0.013121 0.000000 0.000000 0.000000 1.146139 -2.687238 0.437201 -4.089058 3.705551 1.083295 4.550391 2.182126 -1.061390 0.078363 -1.442157 0.438274 0.000000 0.000000 0.000000 0.000000 0.000000 0.000000 29.472181 34.568361 4.948663 160.111691 53.492253 123.075311 -47.857711 -25.230952 151.071349 -24.919367 -31.430430 104.376626 0.000000 0.000000 0.000000 0.000000 0.000000 0.000000 4.411740 0.782435 31.706688 -2.791074 0.237139 0.158456 0.986359 1.160785 -0.729699 0.000000 0.000000 0.000000 1.912680 -0.482982 31.865899 -0.000000 0.000000 0.000000 -4.782827 -3.244665 1.547177 0.000000 0.000000 0.000000
-42.478954 85.242671 345.722956 -1.570710 1.508875 -30.353100 -0.191528 0.313704 30.321350 -0.327148 0.059473 -0.102167 5.287326 -2.224676 -0.152003 0.000000 0.000000 0.000000 1.367802 -3.111895 0.576350 -4.178126 4.282251 1.059221 4.800161 0.602896 -1.074872 0.329120 0.358779 0.466448 0.000000 0.000000 0.000000 0.000000 0.000000 0.000000 30.445989 34.228727 5.024869 163.717501 50.570874 106.997977 -36.595501 -33.800587 165.706460 -28.210466 -30.656116 114.604176 0.000000 0.000000 0.000000 0.000000 0.000000 0.000000 4.916887 0.914099 30.172676 -3.134313 0.177998 0.205438 1.177585 1.009342 -0.904393 0.000000 0.000000 0.000000 2.117906 -0.507793 30.383171 -0.000000 0.000000 0.000000 -4.927630 -3.584532 1.471953 0.000000 0.000000 0.000000
-42.575987 85.290772 345.700095 -1.772144 1.575714 -28.888568 -0.214694 0.276495 28.852570 -0.383061 0.032549 -0.117230 6.632630 -2.184370 -0.276696 0.000000 0.000000 0.000000 1.617896 -3.608350 0.728442 -4.499921 4.678117 1.048713 5.341818 -0.851638 -1.081816 1.112195 1.753494 0.393270 0.000000 0.000000 0.000000 0.000000 0.000000 0.000000 32.130054 34.679590 4.988182 164.274193 48.911061 97.085538 -30.414898 -39.534439 175.897642 -26.107699 -31.465732 99.075179 0.000000 0.000000 0.000000 0.000000 0.000000 0.000000 5.391162 1.025805 28.664242 -3.031307 0.865738 0.161069 0.979208 -0.069103 -1.016560 0.000000 0.000000 0.000000 2.312876 -0.522808 28.923494 -0.000000 0.000000 0.000000 -5.112361 -3.931194 1.417495 0.000000 0.000000 0.000000
-42.661560 85.307154 345.680603 -1.958250 1.606662 -27.559922 -0.241766 0.228661 27.519193 -0.414982 -0.003473 -0.129687 7.829158 -2.033034 -0.417361 0.000000 0.000000 0.000000 1.819836 -4.041003 0.876720 -4.760920 4.876095 1.000233 5.831308 -1.964148 -1.072357 0.933336 4.667724 0.489128 0.000000 0.000000 0.000000 0.000000 0.000000 0.000000 33.408913 35.143869 4.909053 165.633232 46.524774 83.879605 -17.312954 -44.054463 -167.139305 -26.491244 -31.812911 94.784842 0.000000 0.000000 0.000000 0.000000 0.000000 0.000000 5.760194 1.136721 27.288589 -3.194971 0.940793 0.182345 1.248923 -0.185277 -1.267276 0.000000 0.000000 0.000000 2.479411 -0.517480 27.598581 -0.000000 0.000000 0.000000 -7.032069 -9.280375 -0.190057 0.000000 0.000000 0.000000
-42.727867 85.308935 345.666849 -2.103326 1.623146 -26.506752 -0.265525 0.179877 26.461776 -0.414566 -0.047022 -0.137581 8.686535 -1.903729 -0.520653 0.000000 0.000000 0.000000 1.903311 -4.427625 1.019077 -4.920775 4.902012 0.908211 5.707648 -2.401217 -1.243137 -1.046602 6.277305 0.823341 0.000000 0.000000 0.000000 0.000000 0.000000 0.000000 33.883823 34.774120 4.954734 166.831530 44.753431 76.576983 -8.906060 -44.024647 -156.923521 -24.890005 -30.873836 91.632966 0.000000 0.000000 0.000000 0.000000 0.000000 0.000000 5.995697 1.239357 26.186343 -3.304951 0.981256 0.198632 1.634833 -0.321536 -1.578611 0.000000 0.000000 0.000000 3.193000 -1.125425 26.729172 -0.248209 0.810797 -0.170815 -7.405654 -8.544030 0.442664 0.000000 0.000000 0.000000
-42.780307 85.317859 345.666022 -2.221677 1.633482 -25.670887 -0.254450 0.133686 25.623155 -0.375244 -0.081401 -0.139500 9.222917 -1.823344 -0.585674 0.000000 0.000000 0.000000 1.869748 -4.704868 1.131030 -5.087321 4.755392 0.821882 6.020011 -1.902233 -1.267372 -2.687080 6.123866 0.898070 0.000000 0.000000 0.000000 0.000000 0.000000 0.000000 33.580564 33.274194 5.178764 168.144089 42.928831 73.827378 -5.657257 -41.812440 -153.853696 -23.357704 -29.714474 94.654164 0.000000 0.000000 0.000000 0.000000 0.000000 0.000000 6.197648 1.295582 25.320616 -3.376731 1.052634 0.203047 1.817988 -0.539274 -1.741381 0.000000 0.000000 0.000000 3.353726 -1.195649 25.916129 -0.278818 0.899089 -0.189770 -5.486403 1.940506 4.501598 0.000000 0.000000 0.000000
-42.818359 85.323864 345.679061 -2.314761 1.629462 -24.995815 -0.246008 0.098857 24.945792 -0.335268 -0.103950 -0.140080 9.619919 -1.736266 -0.644241 0.000000 0.000000 0.000000 1.790274 -4.969772 1.237622 -5.133203 4.683415 0.722931 6.924913 -0.308822 -1.049499 -4.673743 6.304232 0.878203 0.000000 0.000000 0.000000 0.000000 0.000000 0.000000 33.186569 31.834303 5.377849 169.567347 41.088746 70.621427 -2.185040 -39.204176 -150.347756 -21.585349 -27.776763 97.426942 0.000000 0.000000 0.000000 0.000000 0.000000 0.000000 6.337920 1.350292 24.618141 -3.426097 1.094211 0.208687 1.973043 -0.698729 -1.872328 0.000000 0.000000 0.000000 3.472911 -1.240201 25.257966 -0.304009 0.964430 -0.204158 -5.269680 8.356634 7.246506 0.000000 0.000000 0.000000
-42.855012 85.326771 345.706204 -2.407348 1.615950 -24.462421 -0.250660 0.073578 24.409876 -0.304705 -0.119509 -0.141728 10.006506 -1.704434 -0.680829 0.000000 0.000000 0.000000 1.761029 -5.144498 1.315307 -5.211457 4.580691 0.658205 7.110327 0.505416 -1.077578 -5.884338 5.230948 0.795891 0.000000 0.000000 0.000000 0.000000 0.000000 0.000000 32.899781 30.799086 5.509502 170.515076 39.737831 68.506367 0.015814 -36.905075 -148.341061 -18.574363 -26.290239 95.640076 0.000000 0.000000 0.000000 0.000000 0.000000 0.000000 6.452479 1.421434 24.056331 -3.446328 1.127870 0.216636 1.942823 -1.002536 -1.873354 0.000000 0.000000 0.000000 3.576830 -1.242212 24.735210 -0.328858 0.998507 -0.213440 -4.695865 13.722633 9.094849 0.000000 0.000000 0.000000
-42.874655 85.327779 345.750832 -2.474906 1.587449 -24.109637 -0.250794 0.064688 24.055407 -0.266568 -0.125387 -0.141140 10.247939 -1.695644 -0.700943 0.000000 0.000000 0.000000 1.738030 -5.235286 1.358869 -5.344873 4.565939 0.650491 7.480075 2.243925 -1.062577 -7.032151 1.991937 0.294508 0.000000 0.000000 0.000000 0.000000 0.000000 0.000000 32.124139 29.826405 5.605274 171.381949 38.731333 68.291778 2.067494 -35.484693 -146.334726 -16.755409 -25.073859 94.654187 0.000000 0.000000 0.000000 0.000000 0.000000 0.000000 6.492112 1.505853 23.674024 -3.456022 0.999741 0.253425 1.625872 -1.283654 -1.657728 0.000000 0.000000 0.000000 3.635164 -1.196716 24.383995 0.345776 0.695500 0.093614 -5.143870 16.457208 9.646629 0.000000 0.000000 0.000000
-42.894013 85.339010 345.795760 -2.541697 1.564865 -23.834221 -0.211845 0.064816 23.779947 -0.230907 -0.123063 -0.139028 10.357972 -1.735980 -0.694608 0.000000 0.000000 0.000000 1.711457 -5.262825 1.376932 -5.526064 4.465520 0.662198 8.275889 4.388182 -0.939649 -7.349325 -2.049626 -0.501971 0.000000 0.000000 0.000000 0.000000 0.000000 0.000000 31.191899 28.983628 5.661483 172.160511 38.033420 69.047123 2.031249 -35.186288 -147.091730 -15.356860 -24.926697 92.716674 0.000000 0.000000 0.000000 0.000000 0.000000 0.000000 6.546747 1.551409 23.385517 -3.479013 0.948621 0.264937 1.559898 -1.410344 -1.605629 0.000000 0.000000 0.000000 3.689685 -1.149889 24.108283 -0.363613 0.980779 -0.215902 -4.369153 16.437004 9.947551 0.000000 0.000000 0.000000
-42.908406 85.355747 345.841104 -2.597696 1.542863 -23.560361 -0.160087 0.067704 23.506667 -0.199059 -0.117626 -0.136245 10.394036 -1.770128 -0.685120 0.000000 0.000000 0.000000 1.696450 -5.283409 1.386097 -5.649892 4.527121 0.688559 9.825701 6.221547 -0.593911 -8.969203 -5.918139 -1.644186 0.000000 0.000000 0.000000 0.000000 0.000000 0.000000 30.164100 27.851342 5.731374 173.084317 37.140982 69.988169 2.170221 -34.871206 -147.485838 -12.884008 -23.916692 87.828191 0.000000 0.000000 0.000000 0.000000 0.000000 0.000000 6.608616 1.585663 23.101862 -3.518404 0.974048 0.257619 1.542703 -1.643051 -1.575805 0.000000 0.000000 0.000000 3.717972 -1.112559 23.830612 -0.360730 0.965924 -0.213077 -4.102969 14.520027 8.976685 0.000000 0.000000 0.000000
-42.922956 85.369494 345.878937 -2.649027 1.523733 -23.305147 -0.112728 0.073870 23.252075 -0.174137 -0.112722 -0.134054 10.409799 -1.790363 -0.678446 0.000000 0.000000 0.000000 1.699110 -5.262660 1.382063 -5.711279 4.613054 0.717282 10.719147 7.931150 -0.422198 -8.770343 -8.998571 -2.286305 0.000000 0.000000 0.000000 0.000000 0.000000 0.000000 29.321718 26.900819 5.774391 173.806465 36.746321 71.996032 -0.569979 -35.578421 -151.436916 -13.736073 -24.687041 89.801671 0.000000 0.000000 0.000000 0.000000 0.000000 0.000000 6.690251 1.606593 22.842053 -3.582949 0.990080 0.250846 1.588532 -1.685776 -1.583106 0.000000 0.000000 0.000000 3.742125 -1.087986 23.572149 -0.352531 0.958787 -0.210676 -4.401125 10.067454 7.354030 0.000000 0.000000 0.000000
